<mxfile host="app.diagrams.net" modified="2021-11-07T22:50:39.933Z" agent="5.0 (Windows)" etag="Y7jhyU1D3qAEkTfS6tiV" version="14.7.0" type="github">
  <diagram id="_-QoRymWzMuHM28wkELG" name="Page-1">
    <mxGraphModel dx="1939" dy="2239" grid="1" gridSize="10" guides="1" tooltips="1" connect="1" arrows="1" fold="1" page="1" pageScale="1" pageWidth="827" pageHeight="1169" math="0" shadow="0">
      <root>
        <mxCell id="0" />
        <mxCell id="1" parent="0" />
        <mxCell id="eEtxOFFbca_jSoTp24FS-19" style="edgeStyle=orthogonalEdgeStyle;rounded=0;orthogonalLoop=1;jettySize=auto;html=1;entryX=0.5;entryY=0;entryDx=0;entryDy=0;" edge="1" parent="1" source="eEtxOFFbca_jSoTp24FS-1" target="eEtxOFFbca_jSoTp24FS-8">
          <mxGeometry relative="1" as="geometry">
            <Array as="points">
              <mxPoint x="210" />
              <mxPoint x="910" />
            </Array>
          </mxGeometry>
        </mxCell>
        <mxCell id="eEtxOFFbca_jSoTp24FS-1" value="Playfield Manager" style="swimlane;" vertex="1" parent="1">
          <mxGeometry x="110" y="90" width="200" height="200" as="geometry" />
        </mxCell>
        <mxCell id="eEtxOFFbca_jSoTp24FS-2" value="&lt;div&gt;Hand&lt;/div&gt;&lt;div&gt;PlayArea&lt;/div&gt;&lt;div&gt;GameHand&lt;/div&gt;&lt;div&gt;ActiveGameCard&lt;/div&gt;&lt;div&gt;&lt;br&gt;&lt;/div&gt;&lt;div&gt;&lt;br&gt;&lt;/div&gt;&lt;div&gt;Knows Cards in Areas&lt;/div&gt;&lt;div&gt;CalculatesValue in Areas&lt;br&gt;&lt;/div&gt;&lt;div&gt;Handles Discard&lt;br&gt;&lt;/div&gt;" style="text;html=1;align=left;verticalAlign=middle;resizable=0;points=[];autosize=1;strokeColor=none;" vertex="1" parent="eEtxOFFbca_jSoTp24FS-1">
          <mxGeometry x="10" y="35" width="150" height="130" as="geometry" />
        </mxCell>
        <mxCell id="eEtxOFFbca_jSoTp24FS-24" style="edgeStyle=orthogonalEdgeStyle;rounded=0;orthogonalLoop=1;jettySize=auto;html=1;entryX=0.5;entryY=0;entryDx=0;entryDy=0;" edge="1" parent="1" target="eEtxOFFbca_jSoTp24FS-5">
          <mxGeometry relative="1" as="geometry">
            <mxPoint x="540" y="300" as="sourcePoint" />
          </mxGeometry>
        </mxCell>
        <mxCell id="eEtxOFFbca_jSoTp24FS-25" style="edgeStyle=orthogonalEdgeStyle;rounded=0;orthogonalLoop=1;jettySize=auto;html=1;exitX=0.75;exitY=1;exitDx=0;exitDy=0;entryX=0.5;entryY=0;entryDx=0;entryDy=0;" edge="1" parent="1" source="eEtxOFFbca_jSoTp24FS-3" target="eEtxOFFbca_jSoTp24FS-6">
          <mxGeometry relative="1" as="geometry" />
        </mxCell>
        <mxCell id="eEtxOFFbca_jSoTp24FS-3" value="GameState Manager" style="swimlane;" vertex="1" parent="1">
          <mxGeometry x="480" y="100" width="200" height="200" as="geometry" />
        </mxCell>
        <mxCell id="eEtxOFFbca_jSoTp24FS-11" value="&lt;div&gt;Start Game&lt;br&gt;&lt;/div&gt;&lt;div&gt;Initaite New Round&lt;/div&gt;&lt;div&gt;Initiate Loss&lt;/div&gt;&lt;div&gt;Initate Win&lt;br&gt;&lt;/div&gt;" style="text;html=1;strokeColor=none;fillColor=none;align=left;verticalAlign=middle;whiteSpace=wrap;rounded=0;" vertex="1" parent="eEtxOFFbca_jSoTp24FS-3">
          <mxGeometry y="30" width="120" height="80" as="geometry" />
        </mxCell>
        <mxCell id="eEtxOFFbca_jSoTp24FS-5" value="GameDeck" style="swimlane;" vertex="1" parent="1">
          <mxGeometry x="340" y="410" width="200" height="200" as="geometry" />
        </mxCell>
        <mxCell id="eEtxOFFbca_jSoTp24FS-6" value="PlayerDeck" style="swimlane;" vertex="1" parent="1">
          <mxGeometry x="600" y="410" width="200" height="200" as="geometry" />
        </mxCell>
        <mxCell id="eEtxOFFbca_jSoTp24FS-29" style="edgeStyle=orthogonalEdgeStyle;rounded=0;orthogonalLoop=1;jettySize=auto;html=1;exitX=0.25;exitY=0;exitDx=0;exitDy=0;entryX=0.75;entryY=0;entryDx=0;entryDy=0;" edge="1" parent="1" source="eEtxOFFbca_jSoTp24FS-8" target="eEtxOFFbca_jSoTp24FS-1">
          <mxGeometry relative="1" as="geometry" />
        </mxCell>
        <mxCell id="eEtxOFFbca_jSoTp24FS-8" value="ResultChecker" style="swimlane;startSize=23;" vertex="1" parent="1">
          <mxGeometry x="810" y="90" width="200" height="200" as="geometry" />
        </mxCell>
        <mxCell id="eEtxOFFbca_jSoTp24FS-12" value="&lt;div&gt;Is active card beaten&lt;/div&gt;&lt;div&gt;Has Player Lost&lt;/div&gt;&lt;div&gt;Has Player Won&lt;br&gt;&lt;/div&gt;" style="text;html=1;strokeColor=none;fillColor=none;align=left;verticalAlign=middle;whiteSpace=wrap;rounded=0;" vertex="1" parent="eEtxOFFbca_jSoTp24FS-8">
          <mxGeometry y="30" width="120" height="80" as="geometry" />
        </mxCell>
        <mxCell id="eEtxOFFbca_jSoTp24FS-32" style="edgeStyle=orthogonalEdgeStyle;rounded=0;orthogonalLoop=1;jettySize=auto;html=1;" edge="1" parent="1" source="eEtxOFFbca_jSoTp24FS-13">
          <mxGeometry relative="1" as="geometry">
            <mxPoint x="190" y="300" as="targetPoint" />
          </mxGeometry>
        </mxCell>
        <mxCell id="eEtxOFFbca_jSoTp24FS-13" value="PlayerCard" style="swimlane;" vertex="1" parent="1">
          <mxGeometry x="80" y="475" width="200" height="200" as="geometry" />
        </mxCell>
        <mxCell id="eEtxOFFbca_jSoTp24FS-15" value="Drag&amp;amp;Drop" style="text;html=1;strokeColor=none;fillColor=none;align=center;verticalAlign=middle;whiteSpace=wrap;rounded=0;" vertex="1" parent="eEtxOFFbca_jSoTp24FS-13">
          <mxGeometry x="23" y="50" width="40" height="20" as="geometry" />
        </mxCell>
        <mxCell id="eEtxOFFbca_jSoTp24FS-17" style="edgeStyle=orthogonalEdgeStyle;rounded=0;orthogonalLoop=1;jettySize=auto;html=1;entryX=1;entryY=0.5;entryDx=0;entryDy=0;startArrow=none;" edge="1" parent="1" source="eEtxOFFbca_jSoTp24FS-27" target="eEtxOFFbca_jSoTp24FS-3">
          <mxGeometry relative="1" as="geometry" />
        </mxCell>
        <mxCell id="eEtxOFFbca_jSoTp24FS-18" style="edgeStyle=orthogonalEdgeStyle;rounded=0;orthogonalLoop=1;jettySize=auto;html=1;" edge="1" parent="1" source="eEtxOFFbca_jSoTp24FS-11">
          <mxGeometry relative="1" as="geometry">
            <mxPoint x="310" y="190" as="targetPoint" />
          </mxGeometry>
        </mxCell>
        <mxCell id="eEtxOFFbca_jSoTp24FS-20" value="sends new values and starts Checks" style="rounded=0;whiteSpace=wrap;html=1;align=left;" vertex="1" parent="1">
          <mxGeometry x="520" y="-30" width="120" height="60" as="geometry" />
        </mxCell>
        <mxCell id="eEtxOFFbca_jSoTp24FS-21" value="&amp;nbsp;new cards in PlayArea" style="rounded=0;whiteSpace=wrap;html=1;align=left;fillColor=#dae8fc;strokeColor=#6c8ebf;" vertex="1" parent="1">
          <mxGeometry x="120" y="350" width="120" height="60" as="geometry" />
        </mxCell>
        <mxCell id="eEtxOFFbca_jSoTp24FS-22" value="&lt;div&gt;generates Deck&lt;/div&gt;&lt;div&gt;Deals active Card&lt;br&gt;&lt;/div&gt;" style="text;html=1;align=left;verticalAlign=middle;resizable=0;points=[];autosize=1;strokeColor=none;" vertex="1" parent="1">
          <mxGeometry x="385" y="445" width="110" height="30" as="geometry" />
        </mxCell>
        <mxCell id="eEtxOFFbca_jSoTp24FS-23" value="&lt;div&gt;generates Deck&lt;/div&gt;&lt;div&gt;Deals PlayerCard&lt;br&gt;&lt;/div&gt;" style="text;html=1;align=left;verticalAlign=middle;resizable=0;points=[];autosize=1;strokeColor=none;" vertex="1" parent="1">
          <mxGeometry x="600" y="445" width="110" height="30" as="geometry" />
        </mxCell>
        <mxCell id="eEtxOFFbca_jSoTp24FS-26" value="new round" style="rounded=0;whiteSpace=wrap;html=1;align=left;fillColor=#dae8fc;strokeColor=#6c8ebf;" vertex="1" parent="1">
          <mxGeometry x="360" y="40" width="120" height="60" as="geometry" />
        </mxCell>
        <mxCell id="eEtxOFFbca_jSoTp24FS-27" value="new Round/game lost/won" style="rounded=0;whiteSpace=wrap;html=1;align=left;fillColor=#dae8fc;strokeColor=#6c8ebf;" vertex="1" parent="1">
          <mxGeometry x="710" y="140" width="80" height="60" as="geometry" />
        </mxCell>
        <mxCell id="eEtxOFFbca_jSoTp24FS-28" value="" style="edgeStyle=orthogonalEdgeStyle;rounded=0;orthogonalLoop=1;jettySize=auto;html=1;entryX=1;entryY=0.5;entryDx=0;entryDy=0;endArrow=none;" edge="1" parent="1" source="eEtxOFFbca_jSoTp24FS-12" target="eEtxOFFbca_jSoTp24FS-27">
          <mxGeometry relative="1" as="geometry">
            <mxPoint x="810" y="160" as="sourcePoint" />
            <mxPoint x="680" y="200" as="targetPoint" />
          </mxGeometry>
        </mxCell>
      </root>
    </mxGraphModel>
  </diagram>
</mxfile>
